<?xml version="1.0" encoding="UTF-8"?>
<svg width="128.73px" height="50px" viewBox="0 0 136 41" version="1.1" xmlns="http://www.w3.org/2000/svg" xmlns:xlink="http://www.w3.org/1999/xlink">
    <!-- Generator: Sketch 49.2 (51160) - http://www.bohemiancoding.com/sketch -->
    <title>Amazon-logo-RGB-REV@3x</title>
    <desc>Created with Sketch.</desc>
    <defs></defs>
    <g id="Symbols" stroke="none" stroke-width="1" fill="none" fill-rule="evenodd">
        <g id="-header-/-second-level-V2" transform="translate(-103.000000, -41.000000)">
            <g id="-header-/-second-level">
                <g id="Amazon-logo-RGB-REV" transform="translate(103.000000, 41.000000)">
                    <path d="M84.1632399,31.9705919 C76.282866,37.7876636 64.8520872,40.8677882 55.0143302,40.8677882 C41.8736708,40.9308323 29.1825857,36.0870681 19.4255452,27.2847352 C18.6841121,26.6322741 19.3238629,25.7213707 20.2135826,26.2297819 C31.06213,32.4325071 43.3439109,35.6909984 55.8404984,35.6819938 C65.1766553,35.6354861 74.4116482,33.745005 83.0150779,30.1191277 C84.3538941,29.5641121 85.468162,31.0046106 84.1632399,31.9705919 Z" id="Shape" fill="#FF9900"></path>
                    <path d="M87.4424922,28.225296 C86.4341433,26.9542679 80.7780685,27.6152025 78.2360125,27.9202492 C77.4649221,28.0134579 77.3462928,27.3398131 78.0411215,26.8525857 C82.553271,23.6834891 89.9464174,24.5986293 90.8064798,25.6578193 C91.6665421,26.7170093 90.5776947,34.1313396 86.3494081,37.6775078 C85.696947,38.2198131 85.0783801,37.9317134 85.3707165,37.2114642 C86.3197508,34.8346417 88.4508411,29.5175078 87.4424922,28.225296 Z" id="Shape" fill="#FF9900"></path>
                    <path d="M78.4224299,4.46554517 L78.4224299,1.38542056 C78.4177505,1.17726811 78.4983794,0.976252559 78.6456026,0.829029364 C78.7928258,0.681806169 78.9938413,0.601177329 79.2019938,0.605856698 L92.9968847,0.605856698 C93.2068347,0.597716357 93.4109292,0.676076145 93.5614863,0.82262913 C93.7120435,0.969182116 93.795875,1.17109075 93.7933956,1.3811838 L93.7933956,4.02068536 C93.7933956,4.44436137 93.416324,5.04174455 92.7553894,5.9611215 L85.6249221,16.1674766 C88.277134,16.1039252 91.0861059,16.5021807 93.4968224,17.8621807 C93.9388789,18.1031774 94.2184142,18.5620677 94.2297819,19.0654206 L94.2297819,22.3531464 C94.2297819,22.8064798 93.734081,23.3276012 93.2129595,23.0564486 C88.6339179,20.7045487 83.1994688,20.7156008 78.6300312,23.0861059 C78.1512773,23.3403115 77.6471028,22.8234268 77.6471028,22.3700935 L77.6471028,19.2391277 C77.6023866,18.4976316 77.7809531,17.7597535 78.1597508,17.1207477 L86.4426168,5.25781931 L79.2401246,5.25781931 C79.0235916,5.27234331 78.8110436,5.19443974 78.655184,5.04342552 C78.4993244,4.8924113 78.4147493,4.68242882 78.4224299,4.46554517 Z" id="Shape" fill="#FFFFFF"></path>
                    <path d="M28.0727726,23.6877259 L23.8741433,23.6877259 C23.4824754,23.6687391 23.1636187,23.3660954 23.1242368,22.9759502 L23.1242368,1.43626168 C23.1286836,1.22612175 23.2164508,1.02636095 23.3682199,0.880948711 C23.519989,0.735536474 23.7233201,0.656391555 23.9334579,0.660934579 L27.8439875,0.660934579 C28.2457558,0.672604826 28.5743595,0.984778306 28.6066044,1.38542056 L28.6066044,4.19862928 L28.6871028,4.19862928 C29.7039252,1.47862928 31.6274143,0.207601246 34.194891,0.207601246 C36.7623676,0.207601246 38.4655452,1.47862928 39.6433645,4.19862928 C40.4399441,2.1151705 42.2938742,0.619869429 44.4987565,0.28247687 C46.7036388,-0.0549156893 48.9198882,0.817563782 50.303053,2.56747664 C51.6333956,4.38080997 51.362243,7.01183801 51.362243,9.32510903 L51.362243,22.925109 C51.3462877,23.3510463 50.9962048,23.6880246 50.5699688,23.6877259 L46.3755763,23.6877259 C45.9585193,23.6698197 45.6277817,23.3297917 45.621433,22.9123988 L45.621433,11.4731464 C45.621433,10.5664798 45.7019315,8.29981308 45.5028037,7.43975078 C45.1892835,5.98654206 44.2317757,5.57981308 43.0327726,5.57981308 C41.9183424,5.61326348 40.9313898,6.30846488 40.5246106,7.34654206 C40.1009346,8.43538941 40.1348287,10.2487227 40.1348287,11.4731464 L40.1348287,22.9123988 C40.1303818,23.1225387 40.0426146,23.3222995 39.8908455,23.4677117 C39.7390765,23.613124 39.5357453,23.6922689 39.3256075,23.6877259 L35.131215,23.6877259 C34.7107305,23.6788306 34.3713364,23.3413014 34.3601246,22.9208723 L34.3601246,11.4816199 C34.3601246,9.07937695 34.7499065,5.55015576 31.7757009,5.55015576 C28.8014953,5.55015576 28.8735202,8.99464174 28.8735202,11.4816199 L28.8735202,22.9208723 C28.8597142,23.3517842 28.5038785,23.692558 28.0727726,23.6877259 Z" id="Shape" fill="#FFFFFF"></path>
                    <path d="M105.673271,0.207601246 C111.892835,0.207601246 115.282243,5.55862928 115.282243,12.3586293 C115.282243,18.934081 111.558131,24.1495327 105.681745,24.1495327 C99.5680997,24.1495327 96.2337695,18.7985047 96.2337695,12.134081 C96.2337695,5.46965732 99.6062305,0.207601246 105.673271,0.207601246 Z M105.711402,4.6223053 C102.61433,4.6223053 102.419439,8.85906542 102.419439,11.4689097 C102.419439,14.0787539 102.381308,19.7221184 105.673271,19.7221184 C108.965234,19.7221184 109.062679,15.188785 109.062679,12.4221807 C109.062679,10.6088474 108.982181,8.43115265 108.435639,6.70679128 C107.986542,5.19426791 107.045981,4.6223053 105.711402,4.6223053 Z" id="Shape" fill="#FFFFFF"></path>
                    <path d="M123.357508,23.6877259 L119.175826,23.6877259 C118.758769,23.6698197 118.428031,23.3297917 118.421682,22.9123988 L118.421682,1.35576324 C118.469507,0.949351343 118.817513,0.645303511 119.226667,0.652461059 L123.120249,0.652461059 C123.475117,0.664382672 123.779241,0.909755195 123.865919,1.254081 L123.865919,4.55028037 L123.946417,4.55028037 C125.124237,1.58454829 126.7681,0.194890966 129.666044,0.194890966 C131.547165,0.194890966 133.390156,0.872772586 134.563738,2.73694704 C135.661059,4.46130841 135.661059,7.3634891 135.661059,9.44797508 L135.661059,23.0056075 C135.601468,23.4018983 135.256726,23.6922077 134.856075,23.6834891 L130.648972,23.6834891 C130.270219,23.6650918 129.957606,23.3808982 129.903302,23.0056075 L129.903302,11.3163863 C129.903302,8.9565109 130.178692,5.51202492 127.276511,5.51202492 C126.197586,5.55935644 125.246271,6.23389517 124.844611,7.23638629 C124.255701,8.55401869 124.179439,9.86741433 124.179439,11.3206231 L124.179439,22.9208723 C124.158858,23.3571366 123.79415,23.6974058 123.357508,23.6877259 Z" id="Shape" fill="#FFFFFF"></path>
                    <path d="M67.4068536,13.405109 C67.4068536,15.0404984 67.4449844,16.4047352 66.6188162,17.8579439 C65.9494081,19.04 64.8902181,19.764486 63.7123988,19.764486 C62.1024299,19.764486 61.1703427,18.5358255 61.1703427,16.7182555 C61.1703427,13.1424299 64.3775701,12.4814953 67.4153271,12.4814953 L67.4068536,13.405109 Z M71.6436137,23.6411215 C71.3691492,23.8849396 70.9688953,23.9242808 70.6522118,23.738567 C69.2583178,22.5776947 69.0083489,22.0438629 68.2457321,20.9423053 C65.9409346,23.2894704 64.3097819,23.9927726 61.322866,23.9927726 C57.7894081,23.9927726 55.0397508,21.8108411 55.0397508,17.4469782 C54.9373434,14.4441147 56.7282764,11.69926 59.5180062,10.5834268 C61.7973832,9.5835514 64.97919,9.40137072 67.4153271,9.13021807 L67.4153271,8.58791277 C67.4153271,7.58803738 67.4915888,6.40598131 66.9026791,5.54168224 C66.3435987,4.8138589 65.4638009,4.40560741 64.5470405,4.44859813 C62.9455452,4.44859813 61.5219938,5.2705296 61.1576324,6.99065421 C61.1126367,7.38086303 60.8159561,7.69479246 60.4289097,7.76174455 L56.3573832,7.33806854 C56.1552673,7.3103935 55.9734841,7.20066349 55.8548346,7.03471456 C55.7361851,6.86876564 55.6911536,6.66126148 55.7303427,6.46105919 C56.6666667,1.52523364 61.1237383,0.033894081 65.1190031,0.033894081 C67.1611215,0.033894081 69.8302804,0.580436137 71.444486,2.12261682 C73.4866044,4.02915888 73.2917134,6.57545171 73.2917134,9.3505296 L73.2917134,15.8581931 C73.2917134,17.8282866 74.1094081,18.6883489 74.8762617,19.7475389 C75.1431776,20.1288474 75.2024922,20.594891 74.8762617,20.8618069 C74.0289097,21.5820561 72.4952025,22.9039252 71.656324,23.649595 L71.6436137,23.6411215 Z" id="Shape" fill="#FFFFFF"></path>
                    <path d="M12.3713396,13.405109 C12.3713396,15.0404984 12.4094704,16.4047352 11.5875389,17.8579439 C10.9223676,19.04 9.85894081,19.764486 8.6811215,19.764486 C7.07115265,19.764486 6.13906542,18.5358255 6.13906542,16.7182555 C6.13906542,13.1424299 9.34629283,12.4814953 12.3840498,12.4814953 L12.3713396,13.405109 Z M16.6080997,23.6411215 C16.3336352,23.8849396 15.9333813,23.9242808 15.6166978,23.738567 C14.2228037,22.5776947 13.9728349,22.0438629 13.2102181,20.9423053 C10.9054206,23.2894704 9.27426791,23.9927726 6.28735202,23.9927726 C2.75389408,23.9927726 0.00423676012,21.8108411 0.00423676012,17.4469782 C-0.0981705897,14.4441147 1.69276235,11.69926 4.48249221,10.5834268 C6.76186916,9.5835514 9.94367601,9.40137072 12.3755763,9.13021807 L12.3755763,8.58791277 C12.3755763,7.58803738 12.4560748,6.40598131 11.8671651,5.54168224 C11.3080846,4.8138589 10.4282869,4.40560741 9.51152648,4.44859813 C7.91003115,4.44859813 6.48647975,5.2705296 6.12211838,6.99065421 C6.07578924,7.38024037 5.77974516,7.69349632 5.39339564,7.76174455 L1.32610592,7.33806854 C1.12399002,7.3103935 0.942206796,7.20066349 0.823557324,7.03471456 C0.704907851,6.86876564 0.659876306,6.66126148 0.699065421,6.46105919 C1.63962617,1.49133956 6.10093458,0 10.0961994,0 C12.1383178,0 14.8074766,0.546542056 16.4216822,2.08872274 C18.4595639,3.99950156 18.2604361,6.54155763 18.2604361,9.31663551 L18.2604361,15.8581931 C18.2604361,17.8282866 19.0781308,18.6883489 19.8449844,19.7475389 C20.1119003,20.1288474 20.1754517,20.594891 19.8449844,20.8618069 C18.9976324,21.5820561 17.4639252,22.9039252 16.6250467,23.649595 L16.6080997,23.6411215 Z" id="Shape" fill="#FFFFFF"></path>
                </g>
            </g>
        </g>
    </g>
</svg>